<mxfile host="app.diagrams.net" agent="Mozilla/5.0 (Windows NT 10.0; Win64; x64) AppleWebKit/537.36 (KHTML, like Gecko) Chrome/132.0.0.0 Safari/537.36" version="26.0.10">
  <diagram id="vZv2f6N4h2fVlUgS8-mH" name="Page-1">
    <mxGraphModel dx="989" dy="567" grid="1" gridSize="10" guides="1" tooltips="1" connect="1" arrows="1" fold="1" page="1" pageScale="1" pageWidth="827" pageHeight="1169" math="0" shadow="0">
      <root>
        <mxCell id="0" />
        <mxCell id="1" parent="0" />
        <mxCell id="jvadNwM_Q962B5C3BIU7-1" value="&lt;p style=&quot;margin:0px;margin-top:4px;text-align:center;&quot;&gt;&lt;i&gt;&amp;lt;&amp;lt;Interface&amp;gt;&amp;gt;&lt;/i&gt;&lt;br&gt;&lt;b&gt;Definition&lt;/b&gt;&lt;/p&gt;&lt;hr size=&quot;1&quot; style=&quot;border-style:solid;&quot;&gt;&lt;p style=&quot;margin:0px;margin-left:4px;&quot;&gt;+ getName(): String&lt;/p&gt;" style="verticalAlign=top;align=left;overflow=fill;html=1;whiteSpace=wrap;" parent="1" vertex="1">
          <mxGeometry x="560" y="350" width="190" height="70" as="geometry" />
        </mxCell>
        <mxCell id="jvadNwM_Q962B5C3BIU7-2" value="Program" style="swimlane;fontStyle=1;align=center;verticalAlign=top;childLayout=stackLayout;horizontal=1;startSize=26;horizontalStack=0;resizeParent=1;resizeParentMax=0;resizeLast=0;collapsible=1;marginBottom=0;" parent="1" vertex="1">
          <mxGeometry x="270" y="330" width="167" height="34" as="geometry" />
        </mxCell>
        <mxCell id="jvadNwM_Q962B5C3BIU7-4" value="" style="line;strokeWidth=1;fillColor=none;align=left;verticalAlign=middle;spacingTop=-1;spacingLeft=3;spacingRight=3;rotatable=0;labelPosition=right;points=[];portConstraint=eastwest;" parent="jvadNwM_Q962B5C3BIU7-2" vertex="1">
          <mxGeometry y="26" width="167" height="8" as="geometry" />
        </mxCell>
        <mxCell id="jvadNwM_Q962B5C3BIU7-6" value="1..*" style="endArrow=open;html=1;endSize=12;startArrow=diamondThin;startSize=14;startFill=0;edgeStyle=orthogonalEdgeStyle;align=left;verticalAlign=bottom;exitX=1;exitY=0.5;exitDx=0;exitDy=0;entryX=0;entryY=0.5;entryDx=0;entryDy=0;" parent="1" source="jvadNwM_Q962B5C3BIU7-2" target="jvadNwM_Q962B5C3BIU7-1" edge="1">
          <mxGeometry x="0.5402" relative="1" as="geometry">
            <mxPoint x="437" y="369" as="sourcePoint" />
            <mxPoint x="490" y="420" as="targetPoint" />
            <mxPoint as="offset" />
          </mxGeometry>
        </mxCell>
        <mxCell id="jvadNwM_Q962B5C3BIU7-7" value="VariableDefinition" style="swimlane;fontStyle=1;align=center;verticalAlign=top;childLayout=stackLayout;horizontal=1;startSize=26;horizontalStack=0;resizeParent=1;resizeParentMax=0;resizeLast=0;collapsible=1;marginBottom=0;" parent="1" vertex="1">
          <mxGeometry x="380" y="607" width="167" height="34" as="geometry" />
        </mxCell>
        <mxCell id="jvadNwM_Q962B5C3BIU7-9" value="" style="line;strokeWidth=1;fillColor=none;align=left;verticalAlign=middle;spacingTop=-1;spacingLeft=3;spacingRight=3;rotatable=0;labelPosition=right;points=[];portConstraint=eastwest;" parent="jvadNwM_Q962B5C3BIU7-7" vertex="1">
          <mxGeometry y="26" width="167" height="8" as="geometry" />
        </mxCell>
        <mxCell id="jvadNwM_Q962B5C3BIU7-15" value="FunctionDefinition" style="swimlane;fontStyle=1;align=center;verticalAlign=top;childLayout=stackLayout;horizontal=1;startSize=26;horizontalStack=0;resizeParent=1;resizeParentMax=0;resizeLast=0;collapsible=1;marginBottom=0;" parent="1" vertex="1">
          <mxGeometry x="630" y="607" width="167" height="34" as="geometry" />
        </mxCell>
        <mxCell id="jvadNwM_Q962B5C3BIU7-17" value="" style="line;strokeWidth=1;fillColor=none;align=left;verticalAlign=middle;spacingTop=-1;spacingLeft=3;spacingRight=3;rotatable=0;labelPosition=right;points=[];portConstraint=eastwest;" parent="jvadNwM_Q962B5C3BIU7-15" vertex="1">
          <mxGeometry y="26" width="167" height="8" as="geometry" />
        </mxCell>
        <mxCell id="jvadNwM_Q962B5C3BIU7-19" value="" style="endArrow=block;dashed=1;endFill=0;endSize=12;html=1;entryX=0.5;entryY=1;entryDx=0;entryDy=0;exitX=0.5;exitY=0;exitDx=0;exitDy=0;" parent="1" source="jvadNwM_Q962B5C3BIU7-7" target="jvadNwM_Q962B5C3BIU7-1" edge="1">
          <mxGeometry width="160" relative="1" as="geometry">
            <mxPoint x="480" y="520" as="sourcePoint" />
            <mxPoint x="640" y="520" as="targetPoint" />
          </mxGeometry>
        </mxCell>
        <mxCell id="jvadNwM_Q962B5C3BIU7-20" value="" style="endArrow=block;dashed=1;endFill=0;endSize=12;html=1;entryX=0.5;entryY=1;entryDx=0;entryDy=0;exitX=0.5;exitY=0;exitDx=0;exitDy=0;" parent="1" source="jvadNwM_Q962B5C3BIU7-15" target="jvadNwM_Q962B5C3BIU7-1" edge="1">
          <mxGeometry width="160" relative="1" as="geometry">
            <mxPoint x="544" y="595" as="sourcePoint" />
            <mxPoint x="665" y="500" as="targetPoint" />
          </mxGeometry>
        </mxCell>
        <mxCell id="jvadNwM_Q962B5C3BIU7-21" value="&lt;p style=&quot;margin:0px;margin-top:4px;text-align:center;&quot;&gt;&lt;i&gt;&amp;lt;&amp;lt;Interface&amp;gt;&amp;gt;&lt;/i&gt;&lt;br&gt;&lt;b&gt;ASTNode&lt;/b&gt;&lt;/p&gt;&lt;hr size=&quot;1&quot; style=&quot;border-style:solid;&quot;&gt;&lt;p style=&quot;margin:0px;margin-left:4px;&quot;&gt;&lt;br&gt;&lt;/p&gt;" style="verticalAlign=top;align=left;overflow=fill;html=1;whiteSpace=wrap;" parent="1" vertex="1">
          <mxGeometry x="258.5" y="180" width="190" height="40" as="geometry" />
        </mxCell>
        <mxCell id="jvadNwM_Q962B5C3BIU7-22" value="" style="endArrow=block;endSize=16;endFill=0;html=1;entryX=1;entryY=0.5;entryDx=0;entryDy=0;exitX=0;exitY=0.5;exitDx=0;exitDy=0;" parent="1" source="jvadNwM_Q962B5C3BIU7-23" target="jvadNwM_Q962B5C3BIU7-21" edge="1">
          <mxGeometry width="160" relative="1" as="geometry">
            <mxPoint x="800" y="199.66000000000003" as="sourcePoint" />
            <mxPoint x="960" y="199.66000000000003" as="targetPoint" />
          </mxGeometry>
        </mxCell>
        <mxCell id="jvadNwM_Q962B5C3BIU7-23" value="&lt;p style=&quot;margin:0px;margin-top:4px;text-align:center;&quot;&gt;&lt;i&gt;&amp;lt;&amp;lt;Interface&amp;gt;&amp;gt;&lt;/i&gt;&lt;br&gt;&lt;b&gt;Locatable&lt;/b&gt;&lt;/p&gt;&lt;div&gt;&lt;hr size=&quot;1&quot; style=&quot;border-style:solid;&quot;&gt;&lt;p style=&quot;margin:0px;margin-left:4px;&quot;&gt;+ getLine(): int&lt;/p&gt;&lt;p style=&quot;margin:0px;margin-left:4px;&quot;&gt;+ getCol(): int&lt;/p&gt;&lt;/div&gt;" style="verticalAlign=top;align=left;overflow=fill;html=1;whiteSpace=wrap;" parent="1" vertex="1">
          <mxGeometry x="560" y="160" width="190" height="80" as="geometry" />
        </mxCell>
        <mxCell id="jvadNwM_Q962B5C3BIU7-24" value="" style="endArrow=block;dashed=1;endFill=0;endSize=12;html=1;entryX=0.5;entryY=1;entryDx=0;entryDy=0;exitX=0.5;exitY=0;exitDx=0;exitDy=0;" parent="1" source="jvadNwM_Q962B5C3BIU7-2" target="jvadNwM_Q962B5C3BIU7-21" edge="1">
          <mxGeometry width="160" relative="1" as="geometry">
            <mxPoint x="60" y="530" as="sourcePoint" />
            <mxPoint x="220" y="530" as="targetPoint" />
          </mxGeometry>
        </mxCell>
        <mxCell id="jvadNwM_Q962B5C3BIU7-25" value="" style="endArrow=block;dashed=1;endFill=0;endSize=12;html=1;entryX=0.5;entryY=1;entryDx=0;entryDy=0;exitX=0.5;exitY=0;exitDx=0;exitDy=0;" parent="1" source="jvadNwM_Q962B5C3BIU7-1" target="jvadNwM_Q962B5C3BIU7-23" edge="1">
          <mxGeometry width="160" relative="1" as="geometry">
            <mxPoint x="364" y="340" as="sourcePoint" />
            <mxPoint x="129" y="220" as="targetPoint" />
          </mxGeometry>
        </mxCell>
        <mxCell id="jvadNwM_Q962B5C3BIU7-26" value="&lt;p style=&quot;margin:0px;margin-top:4px;text-align:center;&quot;&gt;&lt;i&gt;&amp;lt;&amp;lt;Interface&amp;gt;&amp;gt;&lt;/i&gt;&lt;br&gt;&lt;b&gt;Type&lt;/b&gt;&lt;/p&gt;&lt;hr size=&quot;1&quot; style=&quot;border-style:solid;&quot;&gt;&lt;p style=&quot;margin:0px;margin-left:4px;&quot;&gt;&lt;br&gt;&lt;/p&gt;" style="verticalAlign=top;align=left;overflow=fill;html=1;whiteSpace=wrap;" parent="1" vertex="1">
          <mxGeometry x="840" y="220" width="190" height="40" as="geometry" />
        </mxCell>
        <mxCell id="jvadNwM_Q962B5C3BIU7-29" value="" style="endArrow=block;endSize=16;endFill=0;html=1;entryX=1;entryY=0.5;entryDx=0;entryDy=0;exitX=0.5;exitY=0;exitDx=0;exitDy=0;" parent="1" source="jvadNwM_Q962B5C3BIU7-26" target="jvadNwM_Q962B5C3BIU7-23" edge="1">
          <mxGeometry width="160" relative="1" as="geometry">
            <mxPoint x="570" y="210" as="sourcePoint" />
            <mxPoint x="459" y="210" as="targetPoint" />
            <Array as="points">
              <mxPoint x="935" y="200" />
            </Array>
          </mxGeometry>
        </mxCell>
        <mxCell id="jvadNwM_Q962B5C3BIU7-31" value="" style="endArrow=open;endFill=1;endSize=12;html=1;exitX=1;exitY=0.5;exitDx=0;exitDy=0;" parent="1" source="jvadNwM_Q962B5C3BIU7-1" edge="1">
          <mxGeometry width="160" relative="1" as="geometry">
            <mxPoint x="750" y="324.9999999999999" as="sourcePoint" />
            <mxPoint x="840" y="240.0000000000001" as="targetPoint" />
            <Array as="points">
              <mxPoint x="840" y="240.0000000000001" />
            </Array>
          </mxGeometry>
        </mxCell>
        <mxCell id="jvadNwM_Q962B5C3BIU7-32" value="1" style="edgeLabel;html=1;align=center;verticalAlign=middle;resizable=0;points=[];fontSize=12;" parent="jvadNwM_Q962B5C3BIU7-31" vertex="1" connectable="0">
          <mxGeometry x="0.6898" relative="1" as="geometry">
            <mxPoint as="offset" />
          </mxGeometry>
        </mxCell>
        <mxCell id="jvadNwM_Q962B5C3BIU7-33" value="*" style="endArrow=open;html=1;endSize=12;startArrow=diamondThin;startSize=14;startFill=0;edgeStyle=orthogonalEdgeStyle;align=left;verticalAlign=bottom;exitX=0;exitY=0.5;exitDx=0;exitDy=0;entryX=1;entryY=0.5;entryDx=0;entryDy=0;" parent="1" source="jvadNwM_Q962B5C3BIU7-15" target="jvadNwM_Q962B5C3BIU7-7" edge="1">
          <mxGeometry x="0.4458" y="6" relative="1" as="geometry">
            <mxPoint x="630" y="624" as="sourcePoint" />
            <mxPoint x="547" y="624" as="targetPoint" />
            <mxPoint as="offset" />
          </mxGeometry>
        </mxCell>
        <mxCell id="jvadNwM_Q962B5C3BIU7-34" value="&lt;p style=&quot;margin:0px;margin-top:4px;text-align:center;&quot;&gt;&lt;i&gt;&amp;lt;&amp;lt;Interface&amp;gt;&amp;gt;&lt;/i&gt;&lt;br&gt;&lt;b&gt;Statement&lt;/b&gt;&lt;/p&gt;&lt;hr size=&quot;1&quot; style=&quot;border-style:solid;&quot;&gt;&lt;p style=&quot;margin:0px;margin-left:4px;&quot;&gt;&lt;br&gt;&lt;/p&gt;" style="verticalAlign=top;align=left;overflow=fill;html=1;whiteSpace=wrap;" parent="1" vertex="1">
          <mxGeometry x="880" y="604" width="190" height="40" as="geometry" />
        </mxCell>
        <mxCell id="jvadNwM_Q962B5C3BIU7-35" value="*" style="endArrow=open;html=1;endSize=12;startArrow=diamondThin;startSize=14;startFill=0;edgeStyle=orthogonalEdgeStyle;align=left;verticalAlign=bottom;exitX=1;exitY=0.5;exitDx=0;exitDy=0;entryX=0;entryY=0.5;entryDx=0;entryDy=0;" parent="1" target="jvadNwM_Q962B5C3BIU7-34" edge="1">
          <mxGeometry x="0.2814" y="-6" relative="1" as="geometry">
            <mxPoint x="797" y="624" as="sourcePoint" />
            <mxPoint x="557" y="634" as="targetPoint" />
            <mxPoint as="offset" />
          </mxGeometry>
        </mxCell>
        <mxCell id="YM5rnMy57DMd5qOm2uYA-2" value="(these are variable definitions&lt;br&gt;in fn body)" style="text;html=1;align=center;verticalAlign=middle;resizable=0;points=[];autosize=1;strokeColor=none;fillColor=none;" parent="1" vertex="1">
          <mxGeometry x="550" y="641" width="180" height="40" as="geometry" />
        </mxCell>
        <mxCell id="16fjyXvrHTU4zyieyKJZ-1" value="sentences" style="text;html=1;align=center;verticalAlign=middle;resizable=0;points=[];autosize=1;strokeColor=none;fillColor=none;fontSize=16;" vertex="1" parent="1">
          <mxGeometry x="447" y="380" width="100" height="30" as="geometry" />
        </mxCell>
        <mxCell id="16fjyXvrHTU4zyieyKJZ-2" value="type" style="text;html=1;align=center;verticalAlign=middle;resizable=0;points=[];autosize=1;strokeColor=none;fillColor=none;fontSize=16;" vertex="1" parent="1">
          <mxGeometry x="777" y="320" width="50" height="30" as="geometry" />
        </mxCell>
        <mxCell id="16fjyXvrHTU4zyieyKJZ-3" value="stmts" style="text;html=1;align=center;verticalAlign=middle;resizable=0;points=[];autosize=1;strokeColor=none;fillColor=none;fontSize=16;" vertex="1" parent="1">
          <mxGeometry x="810" y="621" width="60" height="30" as="geometry" />
        </mxCell>
        <mxCell id="16fjyXvrHTU4zyieyKJZ-4" value="defs" style="text;html=1;align=center;verticalAlign=middle;resizable=0;points=[];autosize=1;strokeColor=none;fillColor=none;fontSize=16;" vertex="1" parent="1">
          <mxGeometry x="575" y="621" width="50" height="30" as="geometry" />
        </mxCell>
      </root>
    </mxGraphModel>
  </diagram>
</mxfile>
